PathFileType	4	(X/Y/Z)	OpenSim_Sub11_EMGPreOp_Gyro.trc
DataRate	CameraRate	NumFrames	NumMarkers	Units	OrigDataRate	OrigDataStartFrame	OrigNumFrames
100	100	33	8	m	100	2943	5885
Frame#	Time	torso_imu_offset_imu	pelvis_imu_offset_imu	tibia_r_imu_offset_imu	femur_r_imu_offset_imu	tibia_l_imu_offset_imu	femur_l_imu_offset_imu	toes_r_imu_offset_imu	toes_l_imu_offset_imu
				X1	Y1	Z1	X2	Y2	Z2	X3	Y3	Z3	X4	Y4	Z4	X5	Y5	Z5	X6	Y6	Z6	X7	Y7	Z7	X8		Y8	Z8	

2943	29.42000000	-0.08404690	-0.03360525	0.01287730	-0.28506134	0.03215237	-0.07566272	-0.57439770	0.20809862	-1.56017630	0.18343161	-0.01306613	0.96889471	-0.04735882	-0.22351269	0.23892820	0.52832280	-0.23523109	0.37378597	-0.13437168	-0.80304088	-0.27880957	-0.00975119	-0.04936514	-0.03243578
2944	29.43000000	-0.13599203	-0.07406973	0.00547730	-0.28270698	0.04893663	-0.04625669	-0.71061988	0.11944063	-1.57245671	0.19500276	0.04638710	1.09802731	-0.26665169	-0.24713788	0.29229616	0.49742235	-0.19858781	0.47683918	-0.25256128	-0.93250709	-0.37366440	-0.01318298	-0.02948615	-0.02938966
2945	29.44000000	-0.17183133	-0.13031772	-0.01289146	-0.28319639	0.07031333	-0.00662532	-0.82115230	0.13756612	-1.60773958	0.15537021	0.11543365	1.23239040	-0.41933560	-0.23978796	0.32612123	0.43992349	-0.16738859	0.51151390	0.41886906	-1.04415109	-0.39338810	-0.03791642	-0.02643291	-0.02007423
2946	29.45000000	-0.19722797	-0.15873679	-0.02911270	-0.28361881	0.09885787	0.03086699	-0.72692022	0.19994459	-1.70919080	0.07799175	0.18525446	1.34141124	-0.49634708	-0.21783223	0.28146847	0.36835270	-0.15559710	0.48433710	0.12655084	-1.32732286	-0.31187095	-0.03311695	-0.01093004	-0.02383482
2947	29.46000000	-0.23922480	-0.16872233	-0.04361190	-0.28317498	0.11651700	0.06605343	-0.56424826	0.20149462	-1.78624218	0.00019323	0.25118023	1.43532051	-0.48220725	-0.20351120	0.19119177	0.30992769	-0.15873748	0.39959086	-0.09780188	-1.58614511	-0.23410148	-0.05542788	-0.03322348	-0.02519519
2948	29.47000000	-0.27194965	-0.17692908	-0.05912524	-0.28768675	0.14476570	0.08876537	-0.42449666	0.23837486	-1.80786176	-0.03653595	0.29456063	1.51329819	-0.39410484	-0.19588333	0.10205477	0.30270720	-0.18036977	0.33307902	0.12072370	-1.83206065	-0.17197066	-0.02427306	0.01553823	-0.02764400
2949	29.48000000	-0.31356288	-0.18594468	-0.06543209	-0.28212618	0.15869009	0.10390593	-0.21954723	0.20458225	-1.80707543	-0.02272762	0.32070063	1.57788209	-0.26805565	-0.18672074	0.05536041	0.31426853	-0.22061474	0.29004458	-0.21023475	-2.10649981	-0.15421011	0.01495754	0.01250089	-0.03586361
2950	29.49000000	-0.36292469	-0.19104424	-0.07050642	-0.27232163	0.16886416	0.10652456	-0.01741260	-0.00443026	-1.81017429	0.01326272	0.33874884	1.62985502	-0.11150345	-0.17296363	0.03178857	0.32029496	-0.27194857	0.31396675	-0.40996720	-2.24739194	-0.31730638	-0.00907553	0.01437337	-0.03663752
2951	29.50000000	-0.40270621	-0.19375240	-0.08008311	-0.27765541	0.17688749	0.10786423	0.03541997	-0.01025681	-1.84754968	0.05922431	0.37586520	1.66623487	0.00993792	-0.15668349	0.00387307	0.28826806	-0.31447833	0.36678074	0.50749624	-2.30410067	-0.42723779	-0.02523398	0.02324823	-0.03868948
2952	29.51000000	-0.41918166	-0.19865135	-0.08674132	-0.28483021	0.18115259	0.11082388	0.20075208	0.11580197	-1.95767722	0.07222875	0.46167010	1.67941747	0.04997661	-0.15273947	-0.02916353	0.21332953	-0.33909109	0.40040169	0.13346455	-2.67703365	-0.43230144	0.00077075	0.03384462	-0.04864894
2953	29.52000000	-0.42235075	-0.19568401	-0.09363278	-0.29840875	0.18877860	0.10143118	0.40529837	0.01355388	-2.00573564	0.12376798	0.55304735	1.69621580	0.02273627	-0.15633752	-0.04399202	0.11582985	-0.32954805	0.45347814	-0.16059749	-3.03811402	-0.44138973	-0.00075010	0.03777449	-0.05569322
2954	29.53000000	-0.41455964	-0.19431044	-0.10326563	-0.30504384	0.19822627	0.08287596	0.36196496	-0.17331735	-1.93852387	0.18094349	0.62076649	1.71524649	0.00140644	-0.16235428	-0.06717783	0.04004138	-0.29644726	0.58122297	-0.34150580	-3.35729166	-0.56306438	0.02104915	0.03424732	-0.06005786
2955	29.54000000	-0.40110928	-0.20536884	-0.10961764	-0.30497209	0.20486928	0.06186310	0.31115837	-0.23255205	-1.81241910	0.26629756	0.66726643	1.71492159	-0.04612932	-0.16425366	-0.08804568	-0.03488541	-0.28553859	0.67723123	-0.00688630	-3.55920961	-0.80556213	0.02554589	0.05493212	-0.06275591
2956	29.55000000	-0.37051123	-0.21884800	-0.10338934	-0.29410292	0.20555489	0.03387249	0.41075479	-0.17915196	-1.70906383	0.45601391	0.70190315	1.68455240	-0.10271289	-0.15611761	-0.10298649	-0.13531093	-0.29118434	0.69678832	0.23899521	-3.64038503	-1.01344723	0.02575184	0.05466313	-0.06612278
2957	29.56000000	-0.37650049	-0.23596083	-0.08500337	-0.28268479	0.21715917	0.01633467	0.49297676	-0.11310447	-1.64959446	0.77384687	0.72012351	1.62936367	-0.13143787	-0.14222736	-0.14200935	-0.21049786	-0.29462644	0.67741046	-0.13176993	-3.72438293	-1.14869481	0.02135379	0.03753550	-0.06205951
2958	29.57000000	-0.39417490	-0.25092891	-0.06677870	-0.26252303	0.22292022	0.00430635	0.42938505	-0.08936751	-1.65739372	1.15067408	0.73892093	1.59822850	-0.14306000	-0.13502397	-0.18025046	-0.25230508	-0.30274634	0.65151614	-0.65412757	-3.57533591	-1.24130101	-0.01739508	0.02715434	-0.05322471
2959	29.58000000	-0.32483681	-0.26139333	-0.06381118	-0.24032013	0.23247941	-0.00432984	0.34130630	-0.16196673	-1.75260431	1.45892832	0.76401517	1.57889851	-0.15910435	-0.12381528	-0.18470048	-0.24565364	-0.29299207	0.65522663	-0.27468922	-3.29040984	-1.38825805	0.04708214	0.05303667	-0.06072797
2960	29.59000000	-0.27794790	-0.27647475	-0.06400467	-0.22119057	0.24463743	-0.00842717	0.29179786	-0.34333930	-1.87775458	1.65785323	0.78884831	1.54516474	-0.14638770	-0.11358681	-0.15432763	-0.20995904	-0.26375085	0.65298625	1.05000502	-3.07130635	-1.44093869	0.04246066	0.03800017	-0.06043150
2961	29.60000000	-0.24612638	-0.29838451	-0.06721007	-0.18942708	0.24087228	-0.00101031	0.26773394	-0.43635874	-1.90299308	1.75796469	0.79414394	1.47239742	-0.06428188	-0.10823654	-0.13382412	-0.16535556	-0.22409670	0.63304950	1.00059054	-2.52052986	-1.28260835	0.02836163	0.02558511	-0.05339034
2962	29.61000000	-0.21276048	-0.29869653	-0.06816943	-0.16519455	0.24925767	0.01392524	0.33088663	-0.40850101	-1.81977212	1.81726296	0.79804566	1.33547918	-0.02798821	-0.09415192	-0.13113395	-0.10335484	-0.18290069	0.59994859	-0.17643926	-1.52863245	-1.06397311	0.01057332	0.03180740	-0.05395748
2963	29.62000000	-0.17640493	-0.29572461	-0.06763739	-0.14604025	0.24754599	0.02530889	0.32601949	-0.43668930	-1.63647690	1.86333717	0.80208975	1.16628503	-0.03686572	-0.08952388	-0.11922219	-0.03085657	-0.13936984	0.57465212	-0.85389204	-0.47028394	-0.93923834	0.03779835	0.01239226	-0.04140963
2964	29.63000000	-0.15263693	-0.29886873	-0.05983349	-0.11878261	0.24235925	0.04241675	0.07774231	-0.58797087	-1.30380792	1.86619637	0.74265316	1.01410102	-0.01717193	-0.08644669	-0.09209376	0.02937930	-0.11155156	0.53968553	-0.98068891	0.43466926	-0.86586008	0.00012454	0.01018817	-0.03119151
2965	29.64000000	-0.15637633	-0.31456994	-0.06216156	-0.10311148	0.24307433	0.07038209	-0.29963958	-0.71332105	-0.76379007	1.79641789	0.64416029	0.89006170	0.01716365	-0.07752576	-0.03863513	0.03454777	-0.09325138	0.47823972	-0.94439776	0.46143461	-0.90022362	0.02034278	-0.01019992	-0.02184514
2966	29.65000000	-0.15112706	-0.34404210	-0.05979929	-0.08918311	0.23595463	0.10684332	-0.62371044	-0.65347105	-0.11975909	1.64163472	0.56195726	0.79417867	0.02610787	-0.06663023	0.02109669	0.02728070	-0.08977633	0.43353619	-0.94739760	0.46024477	-0.92934094	0.01168270	0.01379123	-0.01655860
2967	29.66000000	-0.14149616	-0.35495711	-0.05843220	-0.07739172	0.22754552	0.14857380	-0.80634877	-0.48389159	0.44345475	1.38634584	0.51408288	0.72763300	0.02706789	-0.06040750	0.07071855	0.02696909	-0.10308841	0.39524994	-0.50000444	0.79560256	-0.74382623	0.00227100	-0.01245386	-0.00479177
2968	29.67000000	-0.17224113	-0.34592738	-0.06468357	-0.06938800	0.21528434	0.18548577	-0.89659782	-0.36337089	0.81325636	1.05976005	0.48867918	0.68681932	0.05290435	-0.05835221	0.10337778	-0.00715086	-0.11608580	0.35702702	-0.68890842	1.27454446	-0.45577962	-0.02787487	-0.01099647	0.01084380
2969	29.68000000	-0.21542129	-0.32796601	-0.08163228	-0.07036081	0.20302101	0.21626422	-0.85235179	-0.28119574	0.98735387	0.72149557	0.46037678	0.67596455	0.08499357	-0.05762161	0.12949649	-0.06978285	-0.13234990	0.31020996	-0.52031506	1.64621853	-0.15933805	-0.05679972	-0.04126876	0.02030549
2970	29.69000000	-0.16978427	-0.32754847	-0.08985959	-0.06872259	0.19485313	0.24272463	-0.71227509	-0.26312790	1.08638310	0.43055828	0.42081043	0.66685481	0.09572833	-0.04696899	0.16283269	-0.12905715	-0.14599695	0.26564870	-0.53760533	1.86813655	0.08823941	-0.02270147	-0.01819439	0.02066467
2971	29.70000000	-0.13215146	-0.32489628	-0.08266350	-0.07352533	0.19154074	0.25940382	-0.60871516	-0.32299339	1.25653323	0.20449530	0.36069783	0.65465005	0.07727141	-0.02725059	0.20755852	-0.16657652	-0.14998224	0.23171625	-0.38252535	2.07967544	0.29648356	-0.03548877	-0.02797617	0.01715629
2972	29.71000000	-0.11213946	-0.30028260	-0.08340854	-0.07874989	0.18614168	0.27143927	-0.54463595	-0.35519980	1.55560798	0.01016553	0.27155768	0.61415561	0.09302663	-0.01776258	0.23065918	-0.16829730	-0.14987406	0.20851037	-0.43749769	2.28470483	0.47706372	-0.03066659	-0.04126978	0.01979825
2973	29.72000000	-0.10347362	-0.28276484	-0.06717558	-0.08575371	0.18187150	0.28275174	-0.47802925	-0.30855321	1.92183107	-0.20859496	0.15618074	0.48966626	0.08902885	-0.00379016	0.23767548	-0.14023565	-0.14190261	0.18494613	-0.44662515	2.50459861	0.60151242	-0.05798912	-0.03203710	0.02750031
2974	29.73000000	-0.07737955	-0.27968860	-0.05258801	-0.09350158	0.17659969	0.29002804	-0.41960474	-0.22509122	2.26834649	-0.45428063	0.03009779	0.36072987	0.05397407	0.00520806	0.24552063	-0.07764346	-0.12459037	0.16889308	-0.55031842	2.69644224	0.65971553	-0.03217402	-0.04197973	0.02817543
2975	29.74000000	-0.05572175	-0.28000042	-0.02500605	-0.10036116	0.17455133	0.28976219	-0.39323589	-0.17092036	2.55685409	-0.69367079	-0.08565769	0.29189032	0.05071030	0.01130851	0.25612186	0.01053533	-0.09793791	0.16311458	-0.64766943	2.86957964	0.67773427	-0.07017564	-0.03792005	0.03663739
